# xmcd CD database file generated by LOLA_Freedb v0.9beta0
# 
# Track frame offsets:
#      150
#      18086
#      35868
#      58075
# 
# Disc length: 1385 seconds
# 
# Revision: 2 
# Processed by: cddbd v1.5.1PL2 Copyright (c) Steve Scherf et al.
# Submitted via: LOLA_Freedb v0.9beta0
# 
DISCID=2e056704
DTITLE=Katie Melua - Spider's Web (Single)
DYEAR=2006
DGENRE=Blues/Pop
TTITLE0=Katie Melua - Spider's Web (Single Version)
TTITLE1=Katie Melua - Spider's Web (Album Remix)
TTITLE2=Katie Melua - Cry Baby Cry
TTITLE3=Katie Melua - Daten-CD (Videoclip von Spider's Web)
EXTD=
EXTT0=
EXTT1=
EXTT2=
EXTT3=
PLAYORDER=
